<?xml version="1.0" encoding="UTF-8"?>
<svg xmlns="http://www.w3.org/2000/svg" width="1400" height="540" viewBox="0 0 1400 540">
  <rect width="100%" height="100%" fill="white" />
  <text x="72" y="34" font-family="ui-sans-serif, system-ui, sans-serif" font-size="28" font-weight="700" fill="#111827">Docs + Issues P95 by Concurrency</text>
  <g transform="translate(72, 76)">
    
    <g font-family="ui-sans-serif, system-ui, sans-serif" font-size="12" fill="#111827">
      <rect x="0" y="0" width="12" height="12" rx="2" fill="#9ca3af" />
      <text x="18" y="10">Baseline</text>
      <rect x="96" y="0" width="12" height="12" rx="2" fill="#2563eb" />
      <text x="114" y="10">Current</text>
    </g>
  
  </g>
  <line x1="72" y1="400" x2="1352" y2="400" stroke="#6b7280" />
  
      <line x1="72" y1="400" x2="1352" y2="400" stroke="#e5e7eb" />
      <text x="62" y="404" text-anchor="end" font-size="12" fill="#6b7280">0</text>
    
      <line x1="72" y1="344.4" x2="1352" y2="344.4" stroke="#e5e7eb" />
      <text x="62" y="348.4" text-anchor="end" font-size="12" fill="#6b7280">20</text>
    
      <line x1="72" y1="288.8" x2="1352" y2="288.8" stroke="#e5e7eb" />
      <text x="62" y="292.8" text-anchor="end" font-size="12" fill="#6b7280">41</text>
    
      <line x1="72" y1="233.20000000000002" x2="1352" y2="233.20000000000002" stroke="#e5e7eb" />
      <text x="62" y="237.20000000000002" text-anchor="end" font-size="12" fill="#6b7280">61</text>
    
      <line x1="72" y1="177.60000000000002" x2="1352" y2="177.60000000000002" stroke="#e5e7eb" />
      <text x="62" y="181.60000000000002" text-anchor="end" font-size="12" fill="#6b7280">82</text>
    
      <line x1="72" y1="122" x2="1352" y2="122" stroke="#e5e7eb" />
      <text x="62" y="126" text-anchor="end" font-size="12" fill="#6b7280">102</text>
    
  
      <g font-family="ui-sans-serif, system-ui, sans-serif">
        <rect x="119.16666666666667" y="329.1372549019608" width="58" height="70.86274509803921" rx="4" fill="#9ca3af" />
        <rect x="180.16666666666669" y="334.5882352941177" width="58" height="65.41176470588235" rx="4" fill="#2563eb" />
        <text x="148.16666666666669" y="321.1372549019608" text-anchor="middle" font-size="11" fill="#6b7280">26</text>
        <text x="209.16666666666669" y="326.5882352941177" text-anchor="middle" font-size="11" fill="#6b7280">24</text>
        <text x="178.66666666666669" y="424" text-anchor="middle" font-size="12" fill="#111827">docs c=10</text>
        <text x="178.66666666666669" y="444" text-anchor="middle" font-size="11" fill="#047857">-7.7%</text>
      </g>
    
      <g font-family="ui-sans-serif, system-ui, sans-serif">
        <rect x="332.50000000000006" y="255.54901960784312" width="58" height="144.45098039215688" rx="4" fill="#9ca3af" />
        <rect x="393.50000000000006" y="269.1764705882353" width="58" height="130.8235294117647" rx="4" fill="#2563eb" />
        <text x="361.50000000000006" y="247.54901960784312" text-anchor="middle" font-size="11" fill="#6b7280">53</text>
        <text x="422.50000000000006" y="261.1764705882353" text-anchor="middle" font-size="11" fill="#6b7280">48</text>
        <text x="392.00000000000006" y="424" text-anchor="middle" font-size="12" fill="#111827">docs c=25</text>
        <text x="392.00000000000006" y="444" text-anchor="middle" font-size="11" fill="#047857">-9.4%</text>
      </g>
    
      <g font-family="ui-sans-serif, system-ui, sans-serif">
        <rect x="545.8333333333334" y="122" width="58" height="278" rx="4" fill="#9ca3af" />
        <rect x="606.8333333333334" y="132.9019607843137" width="58" height="267.0980392156863" rx="4" fill="#2563eb" />
        <text x="574.8333333333334" y="114" text-anchor="middle" font-size="11" fill="#6b7280">102</text>
        <text x="635.8333333333334" y="124.9019607843137" text-anchor="middle" font-size="11" fill="#6b7280">98</text>
        <text x="605.3333333333334" y="424" text-anchor="middle" font-size="12" fill="#111827">docs c=50</text>
        <text x="605.3333333333334" y="444" text-anchor="middle" font-size="11" fill="#047857">-3.9%</text>
      </g>
    
      <g font-family="ui-sans-serif, system-ui, sans-serif">
        <rect x="759.1666666666666" y="337.3137254901961" width="58" height="62.68627450980392" rx="4" fill="#9ca3af" />
        <rect x="820.1666666666666" y="337.3137254901961" width="58" height="62.68627450980392" rx="4" fill="#2563eb" />
        <text x="788.1666666666666" y="329.3137254901961" text-anchor="middle" font-size="11" fill="#6b7280">23</text>
        <text x="849.1666666666666" y="329.3137254901961" text-anchor="middle" font-size="11" fill="#6b7280">23</text>
        <text x="818.6666666666666" y="424" text-anchor="middle" font-size="12" fill="#111827">issues c=10</text>
        <text x="818.6666666666666" y="444" text-anchor="middle" font-size="11" fill="#047857">0%</text>
      </g>
    
      <g font-family="ui-sans-serif, system-ui, sans-serif">
        <rect x="972.5" y="269.1764705882353" width="58" height="130.8235294117647" rx="4" fill="#9ca3af" />
        <rect x="1033.5" y="269.1764705882353" width="58" height="130.8235294117647" rx="4" fill="#2563eb" />
        <text x="1001.5" y="261.1764705882353" text-anchor="middle" font-size="11" fill="#6b7280">48</text>
        <text x="1062.5" y="261.1764705882353" text-anchor="middle" font-size="11" fill="#6b7280">48</text>
        <text x="1032" y="424" text-anchor="middle" font-size="12" fill="#111827">issues c=25</text>
        <text x="1032" y="444" text-anchor="middle" font-size="11" fill="#047857">0%</text>
      </g>
    
      <g font-family="ui-sans-serif, system-ui, sans-serif">
        <rect x="1185.8333333333335" y="160.15686274509804" width="58" height="239.84313725490196" rx="4" fill="#9ca3af" />
        <rect x="1246.8333333333335" y="132.9019607843137" width="58" height="267.0980392156863" rx="4" fill="#2563eb" />
        <text x="1214.8333333333335" y="152.15686274509804" text-anchor="middle" font-size="11" fill="#6b7280">88</text>
        <text x="1275.8333333333335" y="124.9019607843137" text-anchor="middle" font-size="11" fill="#6b7280">98</text>
        <text x="1245.3333333333335" y="424" text-anchor="middle" font-size="12" fill="#111827">issues c=50</text>
        <text x="1245.3333333333335" y="444" text-anchor="middle" font-size="11" fill="#b91c1c">+11.4%</text>
      </g>
    
</svg>
