<?xml version="1.0" encoding="UTF-8"?>
<svg xmlns="http://www.w3.org/2000/svg" width="1400" height="500" viewBox="0 0 1400 500">
  <rect width="100%" height="100%" fill="white" />
  <text x="72" y="34" font-family="ui-sans-serif, system-ui, sans-serif" font-size="28" font-weight="700" fill="#111827">API Latency P95 at c=25</text>
  <g transform="translate(72, 76)">
    
    <g font-family="ui-sans-serif, system-ui, sans-serif" font-size="12" fill="#111827">
      <rect x="0" y="0" width="12" height="12" rx="2" fill="#9ca3af" />
      <text x="18" y="10">Baseline</text>
      <rect x="96" y="0" width="12" height="12" rx="2" fill="#2563eb" />
      <text x="114" y="10">Current</text>
    </g>
  
  </g>
  <line x1="72" y1="360" x2="1352" y2="360" stroke="#6b7280" />
  
      <line x1="72" y1="360" x2="1352" y2="360" stroke="#e5e7eb" />
      <text x="62" y="364" text-anchor="end" font-size="12" fill="#6b7280">0</text>
    
      <line x1="72" y1="312.4" x2="1352" y2="312.4" stroke="#e5e7eb" />
      <text x="62" y="316.4" text-anchor="end" font-size="12" fill="#6b7280">13</text>
    
      <line x1="72" y1="264.8" x2="1352" y2="264.8" stroke="#e5e7eb" />
      <text x="62" y="268.8" text-anchor="end" font-size="12" fill="#6b7280">26</text>
    
      <line x1="72" y1="217.20000000000005" x2="1352" y2="217.20000000000005" stroke="#e5e7eb" />
      <text x="62" y="221.20000000000005" text-anchor="end" font-size="12" fill="#6b7280">40</text>
    
      <line x1="72" y1="169.60000000000002" x2="1352" y2="169.60000000000002" stroke="#e5e7eb" />
      <text x="62" y="173.60000000000002" text-anchor="end" font-size="12" fill="#6b7280">53</text>
    
      <line x1="72" y1="122" x2="1352" y2="122" stroke="#e5e7eb" />
      <text x="62" y="126" text-anchor="end" font-size="12" fill="#6b7280">66</text>
    
  
      <g font-family="ui-sans-serif, system-ui, sans-serif">
        <rect x="140.5" y="154.45454545454544" width="58" height="205.54545454545456" rx="4" fill="#9ca3af" />
        <rect x="201.5" y="154.45454545454544" width="58" height="205.54545454545456" rx="4" fill="#2563eb" />
        <text x="169.5" y="146.45454545454544" text-anchor="middle" font-size="11" fill="#6b7280">57</text>
        <text x="230.5" y="146.45454545454544" text-anchor="middle" font-size="11" fill="#6b7280">57</text>
        <text x="200" y="384" text-anchor="middle" font-size="12" fill="#111827">documents?type=wiki</text>
        <text x="200" y="404" text-anchor="middle" font-size="11" fill="#047857">0%</text>
      </g>
    
      <g font-family="ui-sans-serif, system-ui, sans-serif">
        <rect x="396.5" y="165.27272727272725" width="58" height="194.72727272727275" rx="4" fill="#9ca3af" />
        <rect x="457.5" y="122" width="58" height="238" rx="4" fill="#2563eb" />
        <text x="425.5" y="157.27272727272725" text-anchor="middle" font-size="11" fill="#6b7280">54</text>
        <text x="486.5" y="114" text-anchor="middle" font-size="11" fill="#6b7280">66</text>
        <text x="456" y="384" text-anchor="middle" font-size="12" fill="#111827">issues</text>
        <text x="456" y="404" text-anchor="middle" font-size="11" fill="#b91c1c">+22.2%</text>
      </g>
    
      <g font-family="ui-sans-serif, system-ui, sans-serif">
        <rect x="652.5" y="244.60606060606062" width="58" height="115.39393939393939" rx="4" fill="#9ca3af" />
        <rect x="713.5" y="259.030303030303" width="58" height="100.96969696969697" rx="4" fill="#2563eb" />
        <text x="681.5" y="236.60606060606062" text-anchor="middle" font-size="11" fill="#6b7280">32</text>
        <text x="742.5" y="251.030303030303" text-anchor="middle" font-size="11" fill="#6b7280">28</text>
        <text x="712" y="384" text-anchor="middle" font-size="12" fill="#111827">projects</text>
        <text x="712" y="404" text-anchor="middle" font-size="11" fill="#047857">-12.5%</text>
      </g>
    
      <g font-family="ui-sans-serif, system-ui, sans-serif">
        <rect x="908.5" y="273.45454545454544" width="58" height="86.54545454545455" rx="4" fill="#9ca3af" />
        <rect x="969.5" y="277.06060606060606" width="58" height="82.93939393939395" rx="4" fill="#2563eb" />
        <text x="937.5" y="265.45454545454544" text-anchor="middle" font-size="11" fill="#6b7280">24</text>
        <text x="998.5" y="269.06060606060606" text-anchor="middle" font-size="11" fill="#6b7280">23</text>
        <text x="968" y="384" text-anchor="middle" font-size="12" fill="#111827">programs</text>
        <text x="968" y="404" text-anchor="middle" font-size="11" fill="#047857">-4.2%</text>
      </g>
    
      <g font-family="ui-sans-serif, system-ui, sans-serif">
        <rect x="1164.5" y="219.36363636363635" width="58" height="140.63636363636365" rx="4" fill="#9ca3af" />
        <rect x="1225.5" y="201.33333333333334" width="58" height="158.66666666666666" rx="4" fill="#2563eb" />
        <text x="1193.5" y="211.36363636363635" text-anchor="middle" font-size="11" fill="#6b7280">39</text>
        <text x="1254.5" y="193.33333333333334" text-anchor="middle" font-size="11" fill="#6b7280">44</text>
        <text x="1224" y="384" text-anchor="middle" font-size="12" fill="#111827">dashboard/my-week</text>
        <text x="1224" y="404" text-anchor="middle" font-size="11" fill="#b91c1c">+12.8%</text>
      </g>
    
</svg>
