<?xml version="1.0" encoding="UTF-8"?>
<svg xmlns="http://www.w3.org/2000/svg" width="1400" height="540" viewBox="0 0 1400 540">
  <rect width="100%" height="100%" fill="white" />
  <text x="72" y="34" font-family="ui-sans-serif, system-ui, sans-serif" font-size="28" font-weight="700" fill="#111827">Docs + Issues P95 by Concurrency</text>
  <g transform="translate(72, 76)">
    
    <g font-family="ui-sans-serif, system-ui, sans-serif" font-size="12" fill="#111827">
      <rect x="0" y="0" width="12" height="12" rx="2" fill="#9ca3af" />
      <text x="18" y="10">Baseline</text>
      <rect x="96" y="0" width="12" height="12" rx="2" fill="#2563eb" />
      <text x="114" y="10">Current</text>
    </g>
  
  </g>
  <line x1="72" y1="400" x2="1352" y2="400" stroke="#6b7280" />
  
      <line x1="72" y1="400" x2="1352" y2="400" stroke="#e5e7eb" />
      <text x="62" y="404" text-anchor="end" font-size="12" fill="#6b7280">0</text>
    
      <line x1="72" y1="344.4" x2="1352" y2="344.4" stroke="#e5e7eb" />
      <text x="62" y="348.4" text-anchor="end" font-size="12" fill="#6b7280">25</text>
    
      <line x1="72" y1="288.8" x2="1352" y2="288.8" stroke="#e5e7eb" />
      <text x="62" y="292.8" text-anchor="end" font-size="12" fill="#6b7280">49</text>
    
      <line x1="72" y1="233.2" x2="1352" y2="233.2" stroke="#e5e7eb" />
      <text x="62" y="237.2" text-anchor="end" font-size="12" fill="#6b7280">74</text>
    
      <line x1="72" y1="177.6" x2="1352" y2="177.6" stroke="#e5e7eb" />
      <text x="62" y="181.6" text-anchor="end" font-size="12" fill="#6b7280">98</text>
    
      <line x1="72" y1="122" x2="1352" y2="122" stroke="#e5e7eb" />
      <text x="62" y="126" text-anchor="end" font-size="12" fill="#6b7280">123</text>
    
  
      <g font-family="ui-sans-serif, system-ui, sans-serif">
        <rect x="119.16666666666667" y="338.9756097560976" width="58" height="61.02439024390244" rx="4" fill="#9ca3af" />
        <rect x="180.16666666666669" y="350.2764227642276" width="58" height="49.72357723577236" rx="4" fill="#2563eb" />
        <text x="148.16666666666669" y="330.9756097560976" text-anchor="middle" font-size="11" fill="#6b7280">27</text>
        <text x="209.16666666666669" y="342.2764227642276" text-anchor="middle" font-size="11" fill="#6b7280">22</text>
        <text x="178.66666666666669" y="424" text-anchor="middle" font-size="12" fill="#111827">docs c=10</text>
        <text x="178.66666666666669" y="444" text-anchor="middle" font-size="11" fill="#047857">-18.5%</text>
      </g>
    
      <g font-family="ui-sans-serif, system-ui, sans-serif">
        <rect x="332.50000000000006" y="271.17073170731703" width="58" height="128.82926829268294" rx="4" fill="#9ca3af" />
        <rect x="393.50000000000006" y="293.7723577235772" width="58" height="106.22764227642277" rx="4" fill="#2563eb" />
        <text x="361.50000000000006" y="263.17073170731703" text-anchor="middle" font-size="11" fill="#6b7280">57</text>
        <text x="422.50000000000006" y="285.7723577235772" text-anchor="middle" font-size="11" fill="#6b7280">47</text>
        <text x="392.00000000000006" y="424" text-anchor="middle" font-size="12" fill="#111827">docs c=25</text>
        <text x="392.00000000000006" y="444" text-anchor="middle" font-size="11" fill="#047857">-17.5%</text>
      </g>
    
      <g font-family="ui-sans-serif, system-ui, sans-serif">
        <rect x="545.8333333333334" y="142.34146341463412" width="58" height="257.6585365853659" rx="4" fill="#9ca3af" />
        <rect x="606.8333333333334" y="198.84552845528455" width="58" height="201.15447154471545" rx="4" fill="#2563eb" />
        <text x="574.8333333333334" y="134.34146341463412" text-anchor="middle" font-size="11" fill="#6b7280">114</text>
        <text x="635.8333333333334" y="190.84552845528455" text-anchor="middle" font-size="11" fill="#6b7280">89</text>
        <text x="605.3333333333334" y="424" text-anchor="middle" font-size="12" fill="#111827">docs c=50</text>
        <text x="605.3333333333334" y="444" text-anchor="middle" font-size="11" fill="#047857">-21.9%</text>
      </g>
    
      <g font-family="ui-sans-serif, system-ui, sans-serif">
        <rect x="759.1666666666666" y="343.4959349593496" width="58" height="56.5040650406504" rx="4" fill="#9ca3af" />
        <rect x="820.1666666666666" y="336.7154471544716" width="58" height="63.28455284552845" rx="4" fill="#2563eb" />
        <text x="788.1666666666666" y="335.4959349593496" text-anchor="middle" font-size="11" fill="#6b7280">25</text>
        <text x="849.1666666666666" y="328.7154471544716" text-anchor="middle" font-size="11" fill="#6b7280">28</text>
        <text x="818.6666666666666" y="424" text-anchor="middle" font-size="12" fill="#111827">issues c=10</text>
        <text x="818.6666666666666" y="444" text-anchor="middle" font-size="11" fill="#b91c1c">+12%</text>
      </g>
    
      <g font-family="ui-sans-serif, system-ui, sans-serif">
        <rect x="972.5" y="277.9512195121951" width="58" height="122.04878048780488" rx="4" fill="#9ca3af" />
        <rect x="1033.5" y="282.4715447154472" width="58" height="117.52845528455285" rx="4" fill="#2563eb" />
        <text x="1001.5" y="269.9512195121951" text-anchor="middle" font-size="11" fill="#6b7280">54</text>
        <text x="1062.5" y="274.4715447154472" text-anchor="middle" font-size="11" fill="#6b7280">52</text>
        <text x="1032" y="424" text-anchor="middle" font-size="12" fill="#111827">issues c=25</text>
        <text x="1032" y="444" text-anchor="middle" font-size="11" fill="#047857">-3.7%</text>
      </g>
    
      <g font-family="ui-sans-serif, system-ui, sans-serif">
        <rect x="1185.8333333333335" y="122" width="58" height="278" rx="4" fill="#9ca3af" />
        <rect x="1246.8333333333335" y="169.46341463414635" width="58" height="230.53658536585365" rx="4" fill="#2563eb" />
        <text x="1214.8333333333335" y="114" text-anchor="middle" font-size="11" fill="#6b7280">123</text>
        <text x="1275.8333333333335" y="161.46341463414635" text-anchor="middle" font-size="11" fill="#6b7280">102</text>
        <text x="1245.3333333333335" y="424" text-anchor="middle" font-size="12" fill="#111827">issues c=50</text>
        <text x="1245.3333333333335" y="444" text-anchor="middle" font-size="11" fill="#047857">-17.1%</text>
      </g>
    
</svg>
