<?xml version="1.0" encoding="UTF-8"?>
<svg xmlns="http://www.w3.org/2000/svg" width="1400" height="500" viewBox="0 0 1400 500">
  <rect width="100%" height="100%" fill="white" />
  <text x="72" y="34" font-family="ui-sans-serif, system-ui, sans-serif" font-size="28" font-weight="700" fill="#111827">API Latency P95 at c=25</text>
  <g transform="translate(72, 76)">
    
    <g font-family="ui-sans-serif, system-ui, sans-serif" font-size="12" fill="#111827">
      <rect x="0" y="0" width="12" height="12" rx="2" fill="#9ca3af" />
      <text x="18" y="10">Baseline</text>
      <rect x="96" y="0" width="12" height="12" rx="2" fill="#2563eb" />
      <text x="114" y="10">Current</text>
    </g>
  
  </g>
  <line x1="72" y1="360" x2="1352" y2="360" stroke="#6b7280" />
  
      <line x1="72" y1="360" x2="1352" y2="360" stroke="#e5e7eb" />
      <text x="62" y="364" text-anchor="end" font-size="12" fill="#6b7280">0</text>
    
      <line x1="72" y1="312.4" x2="1352" y2="312.4" stroke="#e5e7eb" />
      <text x="62" y="316.4" text-anchor="end" font-size="12" fill="#6b7280">11</text>
    
      <line x1="72" y1="264.8" x2="1352" y2="264.8" stroke="#e5e7eb" />
      <text x="62" y="268.8" text-anchor="end" font-size="12" fill="#6b7280">21</text>
    
      <line x1="72" y1="217.20000000000002" x2="1352" y2="217.20000000000002" stroke="#e5e7eb" />
      <text x="62" y="221.20000000000002" text-anchor="end" font-size="12" fill="#6b7280">32</text>
    
      <line x1="72" y1="169.60000000000002" x2="1352" y2="169.60000000000002" stroke="#e5e7eb" />
      <text x="62" y="173.60000000000002" text-anchor="end" font-size="12" fill="#6b7280">42</text>
    
      <line x1="72" y1="122" x2="1352" y2="122" stroke="#e5e7eb" />
      <text x="62" y="126" text-anchor="end" font-size="12" fill="#6b7280">53</text>
    
  
      <g font-family="ui-sans-serif, system-ui, sans-serif">
        <rect x="140.5" y="122" width="58" height="238" rx="4" fill="#9ca3af" />
        <rect x="201.5" y="122" width="58" height="238" rx="4" fill="#2563eb" />
        <text x="169.5" y="114" text-anchor="middle" font-size="11" fill="#6b7280">53</text>
        <text x="230.5" y="114" text-anchor="middle" font-size="11" fill="#6b7280">53</text>
        <text x="200" y="384" text-anchor="middle" font-size="12" fill="#111827">documents?type=wiki</text>
        <text x="200" y="404" text-anchor="middle" font-size="11" fill="#047857">0%</text>
      </g>
    
      <g font-family="ui-sans-serif, system-ui, sans-serif">
        <rect x="396.5" y="144.45283018867923" width="58" height="215.54716981132077" rx="4" fill="#9ca3af" />
        <rect x="457.5" y="144.45283018867923" width="58" height="215.54716981132077" rx="4" fill="#2563eb" />
        <text x="425.5" y="136.45283018867923" text-anchor="middle" font-size="11" fill="#6b7280">48</text>
        <text x="486.5" y="136.45283018867923" text-anchor="middle" font-size="11" fill="#6b7280">48</text>
        <text x="456" y="384" text-anchor="middle" font-size="12" fill="#111827">issues</text>
        <text x="456" y="404" text-anchor="middle" font-size="11" fill="#047857">0%</text>
      </g>
    
      <g font-family="ui-sans-serif, system-ui, sans-serif">
        <rect x="652.5" y="256.7169811320755" width="58" height="103.28301886792453" rx="4" fill="#9ca3af" />
        <rect x="713.5" y="256.7169811320755" width="58" height="103.28301886792453" rx="4" fill="#2563eb" />
        <text x="681.5" y="248.7169811320755" text-anchor="middle" font-size="11" fill="#6b7280">23</text>
        <text x="742.5" y="248.7169811320755" text-anchor="middle" font-size="11" fill="#6b7280">23</text>
        <text x="712" y="384" text-anchor="middle" font-size="12" fill="#111827">projects</text>
        <text x="712" y="404" text-anchor="middle" font-size="11" fill="#047857">0%</text>
      </g>
    
      <g font-family="ui-sans-serif, system-ui, sans-serif">
        <rect x="908.5" y="297.1320754716981" width="58" height="62.867924528301884" rx="4" fill="#9ca3af" />
        <rect x="969.5" y="297.1320754716981" width="58" height="62.867924528301884" rx="4" fill="#2563eb" />
        <text x="937.5" y="289.1320754716981" text-anchor="middle" font-size="11" fill="#6b7280">14</text>
        <text x="998.5" y="289.1320754716981" text-anchor="middle" font-size="11" fill="#6b7280">14</text>
        <text x="968" y="384" text-anchor="middle" font-size="12" fill="#111827">programs</text>
        <text x="968" y="404" text-anchor="middle" font-size="11" fill="#047857">0%</text>
      </g>
    
      <g font-family="ui-sans-serif, system-ui, sans-serif">
        <rect x="1164.5" y="256.7169811320755" width="58" height="103.28301886792453" rx="4" fill="#9ca3af" />
        <rect x="1225.5" y="256.7169811320755" width="58" height="103.28301886792453" rx="4" fill="#2563eb" />
        <text x="1193.5" y="248.7169811320755" text-anchor="middle" font-size="11" fill="#6b7280">23</text>
        <text x="1254.5" y="248.7169811320755" text-anchor="middle" font-size="11" fill="#6b7280">23</text>
        <text x="1224" y="384" text-anchor="middle" font-size="12" fill="#111827">dashboard/my-week</text>
        <text x="1224" y="404" text-anchor="middle" font-size="11" fill="#047857">0%</text>
      </g>
    
</svg>
