<?xml version="1.0" encoding="UTF-8"?>
<svg xmlns="http://www.w3.org/2000/svg" width="1100" height="560" viewBox="0 0 1100 560">
  <rect width="100%" height="100%" fill="white" />
  <text x="72" y="34" font-family="ui-sans-serif, system-ui, sans-serif" font-size="28" font-weight="700" fill="#111827">DB Efficiency: Request DB Time</text>
  <g transform="translate(72, 76)">
    
    <g font-family="ui-sans-serif, system-ui, sans-serif" font-size="12" fill="#111827">
      <rect x="0" y="0" width="12" height="12" rx="2" fill="#9ca3af" />
      <text x="18" y="10">Baseline</text>
      <rect x="96" y="0" width="12" height="12" rx="2" fill="#2563eb" />
      <text x="114" y="10">Current</text>
    </g>
  
  </g>
  <line x1="72" y1="350" x2="1052" y2="350" stroke="#6b7280" />
  
      <line x1="72" y1="350" x2="1052" y2="350" stroke="#e5e7eb" />
      <text x="62" y="354" text-anchor="end" font-size="12" fill="#6b7280">0</text>
    
      <line x1="72" y1="304.4" x2="1052" y2="304.4" stroke="#e5e7eb" />
      <text x="62" y="308.4" text-anchor="end" font-size="12" fill="#6b7280">8.79</text>
    
      <line x1="72" y1="258.8" x2="1052" y2="258.8" stroke="#e5e7eb" />
      <text x="62" y="262.8" text-anchor="end" font-size="12" fill="#6b7280">17.57</text>
    
      <line x1="72" y1="213.20000000000002" x2="1052" y2="213.20000000000002" stroke="#e5e7eb" />
      <text x="62" y="217.20000000000002" text-anchor="end" font-size="12" fill="#6b7280">26.36</text>
    
      <line x1="72" y1="167.60000000000002" x2="1052" y2="167.60000000000002" stroke="#e5e7eb" />
      <text x="62" y="171.60000000000002" text-anchor="end" font-size="12" fill="#6b7280">35.14</text>
    
      <line x1="72" y1="122" x2="1052" y2="122" stroke="#e5e7eb" />
      <text x="62" y="126" text-anchor="end" font-size="12" fill="#6b7280">43.93</text>
    
  
      <g font-family="ui-sans-serif, system-ui, sans-serif">
        <rect x="92" y="146.4971545640792" width="16.833333333333336" height="203.5028454359208" rx="4" fill="#9ca3af" />
        <rect x="116.83333333333334" y="122" width="16.833333333333336" height="228" rx="4" fill="#2563eb" />
        <text x="100.41666666666667" y="138.4971545640792" text-anchor="middle" font-size="11" fill="#6b7280">39.21</text>
        <text x="125.25000000000001" y="114" text-anchor="middle" font-size="11" fill="#6b7280">43.93</text>
        <text x="112.83333333333334" y="374" text-anchor="end" font-size="12" fill="#111827" transform="rotate(-45 112.83333333333334 374)">dashboard data</text>
        <text x="112.83333333333334" y="470" text-anchor="middle" font-size="11" fill="#b91c1c">+12%</text>
      </g>
    
      <g font-family="ui-sans-serif, system-ui, sans-serif">
        <rect x="173.66666666666669" y="325.606646938311" width="16.833333333333336" height="24.393353061689048" rx="4" fill="#9ca3af" />
        <rect x="198.50000000000003" y="330.5891190530389" width="16.833333333333336" height="19.410880946961075" rx="4" fill="#2563eb" />
        <text x="182.08333333333334" y="317.606646938311" text-anchor="middle" font-size="11" fill="#6b7280">4.7</text>
        <text x="206.91666666666669" y="322.5891190530389" text-anchor="middle" font-size="11" fill="#6b7280">3.74</text>
        <text x="194.50000000000003" y="374" text-anchor="end" font-size="12" fill="#111827" transform="rotate(-45 194.50000000000003 374)">document</text>
        <text x="194.50000000000003" y="470" text-anchor="middle" font-size="11" fill="#047857">-20.4%</text>
      </g>
    
      <g font-family="ui-sans-serif, system-ui, sans-serif">
        <rect x="255.33333333333334" y="313.773275665832" width="16.833333333333336" height="36.226724334168" rx="4" fill="#9ca3af" />
        <rect x="280.1666666666667" y="322.4407011154109" width="16.833333333333336" height="27.55929888458912" rx="4" fill="#2563eb" />
        <text x="263.75" y="305.773275665832" text-anchor="middle" font-size="11" fill="#6b7280">6.98</text>
        <text x="288.58333333333337" y="314.4407011154109" text-anchor="middle" font-size="11" fill="#6b7280">5.31</text>
        <text x="276.1666666666667" y="374" text-anchor="end" font-size="12" fill="#111827" transform="rotate(-45 276.1666666666667 374)">document context</text>
        <text x="276.1666666666667" y="470" text-anchor="middle" font-size="11" fill="#047857">-23.9%</text>
      </g>
    
      <g font-family="ui-sans-serif, system-ui, sans-serif">
        <rect x="337" y="335.41588891418166" width="16.833333333333336" height="14.584111085818348" rx="4" fill="#9ca3af" />
        <rect x="361.8333333333333" y="334.4297746414751" width="16.833333333333336" height="15.570225358524928" rx="4" fill="#2563eb" />
        <text x="345.4166666666667" y="327.41588891418166" text-anchor="middle" font-size="11" fill="#6b7280">2.81</text>
        <text x="370.25" y="326.4297746414751" text-anchor="middle" font-size="11" fill="#6b7280">3</text>
        <text x="357.8333333333333" y="374" text-anchor="end" font-size="12" fill="#111827" transform="rotate(-45 357.8333333333333 374)">document comments</text>
        <text x="357.8333333333333" y="470" text-anchor="middle" font-size="11" fill="#b91c1c">+6.8%</text>
      </g>
    
      <g font-family="ui-sans-serif, system-ui, sans-serif">
        <rect x="418.6666666666667" y="334.6892783974505" width="16.833333333333336" height="15.310721602549513" rx="4" fill="#9ca3af" />
        <rect x="443.5" y="337.8552242203506" width="16.833333333333336" height="12.144775779649441" rx="4" fill="#2563eb" />
        <text x="427.08333333333337" y="326.6892783974505" text-anchor="middle" font-size="11" fill="#6b7280">2.95</text>
        <text x="451.9166666666667" y="329.8552242203506" text-anchor="middle" font-size="11" fill="#6b7280">2.34</text>
        <text x="439.5" y="374" text-anchor="end" font-size="12" fill="#111827" transform="rotate(-45 439.5 374)">team members</text>
        <text x="439.5" y="470" text-anchor="middle" font-size="11" fill="#047857">-20.7%</text>
      </g>
    
      <g font-family="ui-sans-serif, system-ui, sans-serif">
        <rect x="500.33333333333337" y="330.12201229228316" width="16.833333333333336" height="19.877987707716823" rx="4" fill="#9ca3af" />
        <rect x="525.1666666666667" y="335.46778966537676" width="16.833333333333336" height="14.532210334623265" rx="4" fill="#2563eb" />
        <text x="508.75000000000006" y="322.12201229228316" text-anchor="middle" font-size="11" fill="#6b7280">3.83</text>
        <text x="533.5833333333334" y="327.46778966537676" text-anchor="middle" font-size="11" fill="#6b7280">2.8</text>
        <text x="521.1666666666667" y="374" text-anchor="end" font-size="12" fill="#111827" transform="rotate(-45 521.1666666666667 374)">programs</text>
        <text x="521.1666666666667" y="470" text-anchor="middle" font-size="11" fill="#047857">-26.9%</text>
      </g>
    
      <g font-family="ui-sans-serif, system-ui, sans-serif">
        <rect x="582" y="323.0116093785568" width="16.833333333333336" height="26.988390621443205" rx="4" fill="#9ca3af" />
        <rect x="606.8333333333334" y="326.54086045982245" width="16.833333333333336" height="23.459139540177553" rx="4" fill="#2563eb" />
        <text x="590.4166666666666" y="315.0116093785568" text-anchor="middle" font-size="11" fill="#6b7280">5.2</text>
        <text x="615.25" y="318.54086045982245" text-anchor="middle" font-size="11" fill="#6b7280">4.52</text>
        <text x="602.8333333333334" y="374" text-anchor="end" font-size="12" fill="#111827" transform="rotate(-45 602.8333333333334 374)">projects</text>
        <text x="602.8333333333334" y="470" text-anchor="middle" font-size="11" fill="#047857">-13.1%</text>
      </g>
    
      <g font-family="ui-sans-serif, system-ui, sans-serif">
        <rect x="663.6666666666667" y="253.0493967675848" width="16.833333333333336" height="96.9506032324152" rx="4" fill="#9ca3af" />
        <rect x="688.5000000000001" y="319.8456635556567" width="16.833333333333336" height="30.154336444343276" rx="4" fill="#2563eb" />
        <text x="672.0833333333334" y="245.0493967675848" text-anchor="middle" font-size="11" fill="#6b7280">18.68</text>
        <text x="696.9166666666667" y="311.8456635556567" text-anchor="middle" font-size="11" fill="#6b7280">5.81</text>
        <text x="684.5000000000001" y="374" text-anchor="end" font-size="12" fill="#111827" transform="rotate(-45 684.5000000000001 374)">issues</text>
        <text x="684.5000000000001" y="470" text-anchor="middle" font-size="11" fill="#047857">-68.9%</text>
      </g>
    
      <g font-family="ui-sans-serif, system-ui, sans-serif">
        <rect x="745.3333333333334" y="329.29160027316186" width="16.833333333333336" height="20.70839972683815" rx="4" fill="#9ca3af" />
        <rect x="770.1666666666667" y="333.59936262235374" width="16.833333333333336" height="16.400637377646255" rx="4" fill="#2563eb" />
        <text x="753.75" y="321.29160027316186" text-anchor="middle" font-size="11" fill="#6b7280">3.99</text>
        <text x="778.5833333333334" y="325.59936262235374" text-anchor="middle" font-size="11" fill="#6b7280">3.16</text>
        <text x="766.1666666666667" y="374" text-anchor="end" font-size="12" fill="#111827" transform="rotate(-45 766.1666666666667 374)">team grid</text>
        <text x="766.1666666666667" y="470" text-anchor="middle" font-size="11" fill="#047857">-20.8%</text>
      </g>
    
      <g font-family="ui-sans-serif, system-ui, sans-serif">
        <rect x="827" y="342.11108581834736" width="16.833333333333336" height="7.888914181652629" rx="4" fill="#9ca3af" />
        <rect x="851.8333333333334" y="342.9933985886638" width="16.833333333333336" height="7.0066014113362165" rx="4" fill="#2563eb" />
        <text x="835.4166666666666" y="334.11108581834736" text-anchor="middle" font-size="11" fill="#6b7280">1.52</text>
        <text x="860.25" y="334.9933985886638" text-anchor="middle" font-size="11" fill="#6b7280">1.35</text>
        <text x="847.8333333333334" y="374" text-anchor="end" font-size="12" fill="#111827" transform="rotate(-45 847.8333333333334 374)">team projects</text>
        <text x="847.8333333333334" y="470" text-anchor="middle" font-size="11" fill="#047857">-11.2%</text>
      </g>
    
      <g font-family="ui-sans-serif, system-ui, sans-serif">
        <rect x="908.6666666666667" y="331.3157295697701" width="16.833333333333336" height="18.68427043022991" rx="4" fill="#9ca3af" />
        <rect x="933.5000000000001" y="333.18415661279306" width="16.833333333333336" height="16.81584338720692" rx="4" fill="#2563eb" />
        <text x="917.0833333333334" y="323.3157295697701" text-anchor="middle" font-size="11" fill="#6b7280">3.6</text>
        <text x="941.9166666666667" y="325.18415661279306" text-anchor="middle" font-size="11" fill="#6b7280">3.24</text>
        <text x="929.5000000000001" y="374" text-anchor="end" font-size="12" fill="#111827" transform="rotate(-45 929.5000000000001 374)">team assignments</text>
        <text x="929.5000000000001" y="470" text-anchor="middle" font-size="11" fill="#047857">-10%</text>
      </g>
    
      <g font-family="ui-sans-serif, system-ui, sans-serif">
        <rect x="990.3333333333334" y="340.29455952651944" width="16.833333333333336" height="9.705440473480538" rx="4" fill="#9ca3af" />
        <rect x="1015.1666666666667" y="340.1388572729342" width="16.833333333333336" height="9.861142727065786" rx="4" fill="#2563eb" />
        <text x="998.75" y="332.29455952651944" text-anchor="middle" font-size="11" fill="#6b7280">1.87</text>
        <text x="1023.5833333333334" y="332.1388572729342" text-anchor="middle" font-size="11" fill="#6b7280">1.9</text>
        <text x="1011.1666666666667" y="374" text-anchor="end" font-size="12" fill="#111827" transform="rotate(-45 1011.1666666666667 374)">mentions</text>
        <text x="1011.1666666666667" y="470" text-anchor="middle" font-size="11" fill="#b91c1c">+1.6%</text>
      </g>
    
</svg>
