<?xml version="1.0" encoding="UTF-8"?>
<svg xmlns="http://www.w3.org/2000/svg" width="1400" height="560" viewBox="0 0 1400 560">
  <rect width="100%" height="100%" fill="white" />
  <text x="72" y="34" font-family="ui-sans-serif, system-ui, sans-serif" font-size="28" font-weight="700" fill="#111827">Violation Types</text>
  <g transform="translate(72, 76)">
    
    <g font-family="ui-sans-serif, system-ui, sans-serif" font-size="12" fill="#111827">
      <rect x="0" y="0" width="12" height="12" rx="2" fill="#9ca3af" />
      <text x="18" y="10">Baseline</text>
      <rect x="96" y="0" width="12" height="12" rx="2" fill="#2563eb" />
      <text x="114" y="10">Current</text>
    </g>
  
  </g>
  <line x1="72" y1="414" x2="1352" y2="414" stroke="#6b7280" />
  
      <line x1="72" y1="414" x2="1352" y2="414" stroke="#e5e7eb" />
      <text x="62" y="418" text-anchor="end" font-size="12" fill="#6b7280">0</text>
    
      <line x1="72" y1="355.6" x2="1352" y2="355.6" stroke="#e5e7eb" />
      <text x="62" y="359.6" text-anchor="end" font-size="12" fill="#6b7280">890</text>
    
      <line x1="72" y1="297.2" x2="1352" y2="297.2" stroke="#e5e7eb" />
      <text x="62" y="301.2" text-anchor="end" font-size="12" fill="#6b7280">1,780</text>
    
      <line x1="72" y1="238.80000000000004" x2="1352" y2="238.80000000000004" stroke="#e5e7eb" />
      <text x="62" y="242.80000000000004" text-anchor="end" font-size="12" fill="#6b7280">2,669</text>
    
      <line x1="72" y1="180.4" x2="1352" y2="180.4" stroke="#e5e7eb" />
      <text x="62" y="184.4" text-anchor="end" font-size="12" fill="#6b7280">3,559</text>
    
      <line x1="72" y1="122" x2="1352" y2="122" stroke="#e5e7eb" />
      <text x="62" y="126" text-anchor="end" font-size="12" fill="#6b7280">4,449</text>
    
  
      <g font-family="ui-sans-serif, system-ui, sans-serif">
        <rect x="119.16666666666667" y="396.93549112160036" width="58" height="17.06450887839964" rx="4" fill="#9ca3af" />
        <rect x="180.16666666666669" y="397.5918183861542" width="58" height="16.40818161384581" rx="4" fill="#2563eb" />
        <text x="148.16666666666669" y="388.93549112160036" text-anchor="middle" font-size="11" fill="#6b7280">260</text>
        <text x="209.16666666666669" y="389.5918183861542" text-anchor="middle" font-size="11" fill="#6b7280">250</text>
        <text x="178.66666666666669" y="438" text-anchor="middle" font-size="12" fill="#111827">Explicit Any</text>
        <text x="178.66666666666669" y="458" text-anchor="middle" font-size="11" fill="#047857">delta -10</text>
      </g>
    
      <g font-family="ui-sans-serif, system-ui, sans-serif">
        <rect x="332.50000000000006" y="368.3196223870533" width="58" height="45.68037761294673" rx="4" fill="#9ca3af" />
        <rect x="393.50000000000006" y="386.5655203416498" width="58" height="27.434479658350188" rx="4" fill="#2563eb" />
        <text x="361.50000000000006" y="360.3196223870533" text-anchor="middle" font-size="11" fill="#6b7280">696</text>
        <text x="422.50000000000006" y="378.5655203416498" text-anchor="middle" font-size="11" fill="#6b7280">418</text>
        <text x="392.00000000000006" y="438" text-anchor="middle" font-size="12" fill="#111827">Type Assertion As</text>
        <text x="392.00000000000006" y="458" text-anchor="middle" font-size="11" fill="#047857">delta -278</text>
      </g>
    
      <g font-family="ui-sans-serif, system-ui, sans-serif">
        <rect x="545.8333333333334" y="391.4879748258036" width="58" height="22.51202517419645" rx="4" fill="#9ca3af" />
        <rect x="606.8333333333334" y="402.84243650258486" width="58" height="11.157563497415149" rx="4" fill="#2563eb" />
        <text x="574.8333333333334" y="383.4879748258036" text-anchor="middle" font-size="11" fill="#6b7280">343</text>
        <text x="635.8333333333334" y="394.84243650258486" text-anchor="middle" font-size="11" fill="#6b7280">170</text>
        <text x="605.3333333333334" y="438" text-anchor="middle" font-size="12" fill="#111827">Non Null Assertion</text>
        <text x="605.3333333333334" y="458" text-anchor="middle" font-size="11" fill="#047857">delta -173</text>
      </g>
    
      <g font-family="ui-sans-serif, system-ui, sans-serif">
        <rect x="759.1666666666666" y="413.93436727354464" width="58" height="0.06563272645538323" rx="4" fill="#9ca3af" />
        <rect x="820.1666666666666" y="413.93436727354464" width="58" height="0.06563272645538323" rx="4" fill="#2563eb" />
        <text x="788.1666666666666" y="405.93436727354464" text-anchor="middle" font-size="11" fill="#6b7280">1</text>
        <text x="849.1666666666666" y="405.93436727354464" text-anchor="middle" font-size="11" fill="#6b7280">1</text>
        <text x="818.6666666666666" y="438" text-anchor="middle" font-size="12" fill="#111827">Ts Comment Directive</text>
        <text x="818.6666666666666" y="458" text-anchor="middle" font-size="11" fill="#047857">delta 0</text>
      </g>
    
      <g font-family="ui-sans-serif, system-ui, sans-serif">
        <rect x="972.5" y="318.70128118678355" width="58" height="95.29871881321645" rx="4" fill="#9ca3af" />
        <rect x="1033.5" y="337.3409755001124" width="58" height="76.65902449988762" rx="4" fill="#2563eb" />
        <text x="1001.5" y="310.70128118678355" text-anchor="middle" font-size="11" fill="#6b7280">1,452</text>
        <text x="1062.5" y="329.3409755001124" text-anchor="middle" font-size="11" fill="#6b7280">1,168</text>
        <text x="1032" y="438" text-anchor="middle" font-size="12" fill="#111827">Untyped Parameter</text>
        <text x="1032" y="458" text-anchor="middle" font-size="11" fill="#047857">delta -284</text>
      </g>
    
      <g font-family="ui-sans-serif, system-ui, sans-serif">
        <rect x="1185.8333333333335" y="122" width="58" height="292" rx="4" fill="#9ca3af" />
        <rect x="1246.8333333333335" y="177.9847156664419" width="58" height="236.0152843335581" rx="4" fill="#2563eb" />
        <text x="1214.8333333333335" y="114" text-anchor="middle" font-size="11" fill="#6b7280">4,449</text>
        <text x="1275.8333333333335" y="169.9847156664419" text-anchor="middle" font-size="11" fill="#6b7280">3,596</text>
        <text x="1245.3333333333335" y="438" text-anchor="middle" font-size="12" fill="#111827">Missing Return Type</text>
        <text x="1245.3333333333335" y="458" text-anchor="middle" font-size="11" fill="#047857">delta -853</text>
      </g>
    
</svg>
